HIERARCHY
ROOT Hips
{
	OFFSET 0.000000 100.481300 0.000000
	CHANNELS 6 Xposition Yposition Zposition Xrotation Yrotation Zrotation 
	JOINT Spine
	{
		OFFSET -0.279200 12.230698 -2.892100
		CHANNELS 3 Xrotation Yrotation Zrotation
		JOINT Spine1
		{
			OFFSET -0.232667 10.192268 -1.242267
			CHANNELS 3 Xrotation Yrotation Zrotation
			JOINT Spine1_split
			{
				OFFSET -0.232667 10.192268 -1.242267
				CHANNELS 3 Xrotation Yrotation Zrotation
				JOINT Spine2
				{
					OFFSET -0.232667 10.192268 -1.242267
					CHANNELS 3 Xrotation Yrotation Zrotation
					JOINT Neck
					{
						OFFSET -0.418800 17.814194 8.416900
						CHANNELS 3 Xrotation Yrotation Zrotation
						JOINT Head
						{
							OFFSET 0.000000 7.031097 3.806800
							CHANNELS 3 Xrotation Yrotation Zrotation
							JOINT HeadTop_End
							{
								OFFSET 0.000000 24.646606 12.978600
								CHANNELS 3 Xrotation Yrotation Zrotation
								End Site
								{
									OFFSET 0.000000 0.000000 0.000000
								}
							}
						}
					}
					JOINT LeftShoulder
					{
						OFFSET 8.476499 7.247704 -3.868750
						CHANNELS 3 Xrotation Yrotation Zrotation
						JOINT LeftShoulder_split
						{
							OFFSET 8.476499 7.247704 -3.868750
							CHANNELS 3 Xrotation Yrotation Zrotation
							JOINT LeftArm
							{
								OFFSET 9.308998 -2.777710 0.208600
								CHANNELS 3 Xrotation Yrotation Zrotation
								JOINT LeftForeArm
								{
									OFFSET 29.972298 0.000000 0.000000
									CHANNELS 3 Xrotation Yrotation Zrotation
									JOINT LeftHand
									{
										OFFSET 26.026505 0.000000 0.000000
										CHANNELS 3 Xrotation Yrotation Zrotation
										JOINT LeftHandThumb1
										{
											OFFSET 12.240501 -7.147949 9.207150
											CHANNELS 3 Xrotation Yrotation Zrotation
											JOINT LeftHandThumb2
											{
												OFFSET 4.138618 -2.389435 2.389433
												CHANNELS 3 Xrotation Yrotation Zrotation
												JOINT LeftHandThumb3
												{
													OFFSET 2.726913 -1.574387 1.574386
													CHANNELS 3 Xrotation Yrotation Zrotation
													JOINT LeftHandThumb4
													{
														OFFSET 3.941010 -2.275345 2.275342
														CHANNELS 3 Xrotation Yrotation Zrotation
														End Site
														{
															OFFSET 0.000000 0.000000 0.000000
														}
													}
												}
											}
										}
										JOINT LeftHandIndex1
										{
											OFFSET 24.424698 -1.985611 5.953459
											CHANNELS 3 Xrotation Yrotation Zrotation
											JOINT LeftHandIndex2
											{
												OFFSET 6.426697 0.000000 0.000000
												CHANNELS 3 Xrotation Yrotation Zrotation
												JOINT LeftHandIndex3
												{
													OFFSET 5.337898 0.000000 0.000000
													CHANNELS 3 Xrotation Yrotation Zrotation
													JOINT LeftHandIndex4
													{
														OFFSET 4.409401 0.000000 0.000000
														CHANNELS 3 Xrotation Yrotation Zrotation
														End Site
														{
															OFFSET 0.000000 0.000000 0.000000
														}
													}
												}
											}
										}
										JOINT LeftHandMiddle1
										{
											OFFSET 23.810104 0.000000 0.000000
											CHANNELS 3 Xrotation Yrotation Zrotation
											JOINT LeftHandMiddle2
											{
												OFFSET 7.176498 0.000000 0.000000
												CHANNELS 3 Xrotation Yrotation Zrotation
												JOINT LeftHandMiddle3
												{
													OFFSET 6.774902 0.000000 0.000000
													CHANNELS 3 Xrotation Yrotation Zrotation
													JOINT LeftHandMiddle4
													{
														OFFSET 5.403328 0.000000 0.000000
														CHANNELS 3 Xrotation Yrotation Zrotation
														End Site
														{
															OFFSET 0.000000 0.000000 0.000000
														}
													}
												}
											}
										}
										JOINT LeftHandRing1
										{
											OFFSET 22.908401 -0.839279 -6.020567
											CHANNELS 3 Xrotation Yrotation Zrotation
											JOINT LeftHandRing2
											{
												OFFSET 6.337502 0.000000 0.000000
												CHANNELS 3 Xrotation Yrotation Zrotation
												JOINT LeftHandRing3
												{
													OFFSET 5.779297 0.000000 0.000000
													CHANNELS 3 Xrotation Yrotation Zrotation
													JOINT LeftHandRing4
													{
														OFFSET 4.965698 0.000000 0.000000
														CHANNELS 3 Xrotation Yrotation Zrotation
														End Site
														{
															OFFSET 0.000000 0.000000 0.000000
														}
													}
												}
											}
										}
										JOINT LeftHandPinky1
										{
											OFFSET 20.037003 -1.530319 -10.950146
											CHANNELS 3 Xrotation Yrotation Zrotation
											JOINT LeftHandPinky2
											{
												OFFSET 5.254700 0.000000 0.000000
												CHANNELS 3 Xrotation Yrotation Zrotation
												JOINT LeftHandPinky3
												{
													OFFSET 4.810204 0.000000 0.000000
													CHANNELS 3 Xrotation Yrotation Zrotation
													JOINT LeftHandPinky4
													{
														OFFSET 3.647202 0.000000 0.000000
														CHANNELS 3 Xrotation Yrotation Zrotation
														End Site
														{
															OFFSET 0.000000 0.000000 0.000000
														}
													}
												}
											}
										}
									}
								}
							}
						}
					}
					JOINT RightShoulder
					{
						OFFSET -7.570500 7.247704 -3.868750
						CHANNELS 3 Xrotation Yrotation Zrotation
						JOINT RightShoulder_split
						{
							OFFSET -7.570500 7.247704 -3.868750
							CHANNELS 3 Xrotation Yrotation Zrotation
							JOINT RightArm
							{
								OFFSET -9.308998 -2.777710 0.208500
								CHANNELS 3 Xrotation Yrotation Zrotation
								JOINT RightForeArm
								{
									OFFSET -29.972300 0.000000 0.000000
									CHANNELS 3 Xrotation Yrotation Zrotation
									JOINT RightHand
									{
										OFFSET -26.026505 0.000000 0.000000
										CHANNELS 3 Xrotation Yrotation Zrotation
										JOINT RightHandThumb1
										{
											OFFSET -12.240601 -7.148026 9.207092
											CHANNELS 3 Xrotation Yrotation Zrotation
											JOINT RightHandThumb2
											{
												OFFSET -4.138618 -2.389435 2.389433
												CHANNELS 3 Xrotation Yrotation Zrotation
												JOINT RightHandThumb3
												{
													OFFSET -2.726974 -1.574417 1.574421
													CHANNELS 3 Xrotation Yrotation Zrotation
													JOINT RightHandThumb4
													{
														OFFSET -3.941010 -2.275345 2.275343
														CHANNELS 3 Xrotation Yrotation Zrotation
														End Site
														{
															OFFSET 0.000000 0.000000 0.000000
														}
													}
												}
											}
										}
										JOINT RightHandIndex1
										{
											OFFSET -24.424698 -1.985657 5.953444
											CHANNELS 3 Xrotation Yrotation Zrotation
											JOINT RightHandIndex2
											{
												OFFSET -6.426697 0.000000 0.000000
												CHANNELS 3 Xrotation Yrotation Zrotation
												JOINT RightHandIndex3
												{
													OFFSET -5.337898 0.000000 0.000000
													CHANNELS 3 Xrotation Yrotation Zrotation
													JOINT RightHandIndex4
													{
														OFFSET -4.409401 0.000000 0.000000
														CHANNELS 3 Xrotation Yrotation Zrotation
														End Site
														{
															OFFSET 0.000000 0.000000 0.000000
														}
													}
												}
											}
										}
										JOINT RightHandMiddle1
										{
											OFFSET -23.810097 0.000000 0.000000
											CHANNELS 3 Xrotation Yrotation Zrotation
											JOINT RightHandMiddle2
											{
												OFFSET -7.176498 0.000000 0.000000
												CHANNELS 3 Xrotation Yrotation Zrotation
												JOINT RightHandMiddle3
												{
													OFFSET -6.774902 0.000000 0.000000
													CHANNELS 3 Xrotation Yrotation Zrotation
													JOINT RightHandMiddle4
													{
														OFFSET -5.403328 0.000000 0.000000
														CHANNELS 3 Xrotation Yrotation Zrotation
														End Site
														{
															OFFSET 0.000000 0.000000 0.000000
														}
													}
												}
											}
										}
										JOINT RightHandRing1
										{
											OFFSET -22.908302 -0.839325 -6.020576
											CHANNELS 3 Xrotation Yrotation Zrotation
											JOINT RightHandRing2
											{
												OFFSET -6.337502 0.000000 0.000000
												CHANNELS 3 Xrotation Yrotation Zrotation
												JOINT RightHandRing3
												{
													OFFSET -5.779297 0.000000 0.000000
													CHANNELS 3 Xrotation Yrotation Zrotation
													JOINT RightHandRing4
													{
														OFFSET -4.965698 0.000000 0.000000
														CHANNELS 3 Xrotation Yrotation Zrotation
														End Site
														{
															OFFSET 0.000000 0.000000 0.000000
														}
													}
												}
											}
										}
										JOINT RightHandPinky1
										{
											OFFSET -20.037003 -1.530334 -10.950259
											CHANNELS 3 Xrotation Yrotation Zrotation
											JOINT RightHandPinky2
											{
												OFFSET -5.254700 0.000000 0.000000
												CHANNELS 3 Xrotation Yrotation Zrotation
												JOINT RightHandPinky3
												{
													OFFSET -4.810204 0.000000 0.000000
													CHANNELS 3 Xrotation Yrotation Zrotation
													JOINT RightHandPinky4
													{
														OFFSET -3.647202 0.000000 0.000000
														CHANNELS 3 Xrotation Yrotation Zrotation
														End Site
														{
															OFFSET 0.000000 0.000000 0.000000
														}
													}
												}
											}
										}
									}
								}
							}
						}
					}
				}
			}
		}
	}
	JOINT LeftUpLeg
	{
		OFFSET 15.427100 -6.655098 0.678600
		CHANNELS 3 Xrotation Yrotation Zrotation
		JOINT LeftLeg
		{
			OFFSET 4.081073 -39.591068 13.024000
			CHANNELS 3 Xrotation Yrotation Zrotation
			JOINT LeftFoot
			{
				OFFSET -4.081074 -37.707932 -15.979700
				CHANNELS 3 Xrotation Yrotation Zrotation
				JOINT LeftToeBase
				{
					OFFSET 5.346399 -15.068900 20.645000
					CHANNELS 3 Xrotation Yrotation Zrotation
					JOINT LeftToe_End
					{
						OFFSET 2.754700 0.931300 11.300900
						CHANNELS 3 Xrotation Yrotation Zrotation
						End Site
						{
							OFFSET 0.000000 0.000000 0.000000
						}
					}
				}
			}
		}
	}
	JOINT RightUpLeg
	{
		OFFSET -15.569500 -6.655098 0.678600
		CHANNELS 3 Xrotation Yrotation Zrotation
		JOINT RightLeg
		{
			OFFSET -4.081825 -39.591045 13.023800
			CHANNELS 3 Xrotation Yrotation Zrotation
			JOINT RightFoot
			{
				OFFSET 4.081824 -37.707954 -15.979600
				CHANNELS 3 Xrotation Yrotation Zrotation
				JOINT RightToeBase
				{
					OFFSET -5.346400 -15.068900 20.645000
					CHANNELS 3 Xrotation Yrotation Zrotation
					JOINT RightToe_End
					{
						OFFSET -2.754700 0.931300 11.300900
						CHANNELS 3 Xrotation Yrotation Zrotation
						End Site
						{
							OFFSET 0.000000 0.000000 0.000000
						}
					}
				}
			}
		}
	}
}
MOTION
Frames: 4
Frame Time: 0.016667
0.090267 94.612381 -1.402267 -2.727989 3.520611 0.892527 -0.568333 -0.716045 -4.022174 1.149532 -0.103992 1.499583 0.000000 0.000000 0.000000 1.152620 -0.098084 1.497723 8.457851 0.270831 0.379498 -3.010870 1.242464 1.518414 0.000000 0.000000 -0.000000 6.883881 -26.760616 -3.764300 0.000000 0.000000 0.000000 5.911086 4.517231 -79.896363 0.000001 -18.872940 0.000001 -18.698676 1.922928 7.511058 -1.708903 11.916058 7.382931 4.613905 16.205071 1.361378 0.155772 9.815000 3.327220 -0.000001 0.000001 0.000001 0.412193 2.350818 -19.887614 0.808848 3.242974 -28.002748 0.188719 1.604153 -13.418391 -0.000000 0.000000 -0.000001 0.585505 2.783221 -23.755702 0.716287 3.062839 -26.319955 0.695385 3.020278 -25.926005 -0.000000 -0.000000 -0.000000 0.650669 2.926633 -25.063977 1.383129 4.144254 -36.899052 1.265556 3.983251 -35.240166 0.000000 0.000001 -0.000000 2.588332 6.753837 -26.641470 1.376460 0.049917 -37.011135 0.758619 3.146844 -27.101504 -0.000000 0.000000 -0.000001 0.447593 -3.990809 8.744684 0.000000 0.000000 0.000000 8.902107 19.263657 69.814096 -0.000004 13.419893 -0.000001 -28.538475 -11.177663 5.826638 -2.036752 -12.208780 -7.947294 5.412884 -17.299262 -0.815915 -0.502647 -8.507748 -2.994147 -0.000000 -0.000002 -0.000000 0.402316 -2.335092 19.548585 0.985290 -3.573151 30.823466 0.485062 -2.555990 21.487591 0.000000 0.000000 -0.000000 0.542485 -2.697160 22.740632 1.054146 -3.685872 31.911112 1.039755 -3.662712 31.686528 0.000000 0.000000 -0.000000 0.533150 -2.674803 22.541429 1.506291 -4.326613 38.375852 0.751389 -3.148930 26.835431 -0.000001 -0.000000 -0.000000 0.306502 -2.045506 17.041967 1.637529 -4.486881 40.083696 0.926109 -3.472233 29.860293 -0.000000 -0.000000 -0.000000 -1.693192 11.763067 4.576874 16.533173 -4.103224 0.912599 -12.281710 0.742817 -4.397736 -0.000063 -0.000005 -0.000005 -0.000000 0.000000 0.000000 4.440758 -4.587912 -5.841799 15.700115 -8.430286 4.281871 -15.103254 -20.210972 3.858299 -0.007143 0.000014 -0.000001 0.000000 0.000000 0.000000 
0.084527 94.609604 -1.386960 -2.714293 3.509077 0.887933 -0.567493 -0.720669 -4.022991 1.145595 -0.104598 1.502204 0.000000 0.000000 0.000000 1.148704 -0.098715 1.500344 8.441302 0.281180 0.369448 -3.009801 1.286438 1.518969 -0.000000 0.000000 -0.000000 6.880137 -26.751008 -3.764938 0.000000 0.000000 0.000000 5.911935 4.505761 -79.903596 -0.000003 -18.867749 -0.000001 -18.716272 1.935615 7.508162 -1.708903 11.916058 7.382932 4.613904 16.205073 1.361378 0.155771 9.814995 3.327222 -0.000001 0.000006 0.000001 0.412528 2.351743 -19.895755 0.808928 3.243122 -28.004158 0.188775 1.604389 -13.420403 0.000000 0.000000 -0.000002 0.585819 2.783939 -23.762211 0.716462 3.063194 -26.323226 0.695466 3.020449 -25.927583 -0.000001 -0.000000 0.000001 0.650937 2.927205 -25.069248 1.383308 4.144497 -36.901552 1.265633 3.983356 -35.241256 -0.000000 -0.000000 -0.000000 2.588728 6.754087 -26.644855 1.376650 0.050168 -37.013710 0.758706 3.147008 -27.103046 -0.000000 0.000000 -0.000000 0.447802 -3.989255 8.743093 0.000000 0.000000 0.000000 8.906556 19.272811 69.810298 -0.000001 13.433799 -0.000009 -28.531153 -11.162473 5.826436 -2.036756 -12.208784 -7.947294 5.412871 -17.299273 -0.815953 -0.502648 -8.507751 -2.994147 0.000000 -0.000004 -0.000000 0.402916 -2.336784 19.563328 0.985632 -3.573722 30.828919 0.485201 -2.556347 21.490741 0.000000 0.000000 -0.000001 0.543008 -2.698407 22.751440 1.054456 -3.686373 31.915917 1.039926 -3.662990 31.689216 0.000000 -0.000000 0.000000 0.533449 -2.675527 22.547846 1.506552 -4.326944 38.379325 0.751422 -3.148993 26.836016 -0.000000 -0.000000 -0.000000 0.306657 -2.046009 17.046294 1.637642 -4.487017 40.085151 0.926100 -3.472214 29.860125 -0.000000 0.000000 -0.000000 -1.696046 11.766066 4.587611 16.536455 -4.097338 0.911394 -12.296145 0.745765 -4.406342 -0.000072 0.000006 -0.000002 -0.000000 0.000000 0.000000 4.436765 -4.588917 -5.838482 15.699386 -8.429295 4.289234 -15.114551 -20.198630 3.852331 -0.007440 0.000020 -0.000000 0.000000 0.000002 0.000000 
0.078177 94.607086 -1.370890 -2.701458 3.498059 0.883015 -0.565704 -0.727385 -4.023975 1.142373 -0.105478 1.505871 0.000000 0.000000 0.000000 1.145511 -0.099612 1.504005 8.426180 0.289927 0.361756 -3.008406 1.323638 1.520888 -0.000000 -0.000000 0.000000 6.876203 -26.741154 -3.765900 0.000000 0.000000 0.000000 5.916043 4.497560 -79.909826 -0.000003 -18.862124 0.000021 -18.729878 1.945433 7.506014 -1.708903 11.916059 7.382935 4.613904 16.205071 1.361379 0.155772 9.814994 3.327218 -0.000000 -0.000001 -0.000000 0.412732 2.352311 -19.900803 0.808947 3.243158 -28.004465 0.188810 1.604535 -13.421649 0.000000 -0.000000 -0.000005 0.586068 2.784504 -23.767351 0.716602 3.063473 -26.325815 0.695532 3.020588 -25.928856 -0.000000 0.000000 0.000001 0.651258 2.927888 -25.075525 1.383522 4.144781 -36.904530 1.265721 3.983482 -35.242547 0.000000 -0.000000 0.000000 2.589483 6.754561 -26.651279 1.377007 0.050641 -37.018649 0.758866 3.147329 -27.106019 -0.000000 0.000001 0.000001 0.447138 -3.992707 8.741732 0.000000 0.000000 0.000000 8.916820 19.279766 69.800804 0.000001 13.450138 -0.000005 -28.539993 -11.159941 5.821305 -2.036758 -12.208777 -7.947328 5.412899 -17.299365 -0.815919 -0.502649 -8.507749 -2.994147 -0.000000 0.000002 0.000001 0.403551 -2.338563 19.578867 0.985999 -3.574338 30.834838 0.485353 -2.556732 21.494137 -0.000000 0.000000 -0.000001 0.543656 -2.699948 22.764365 1.054833 -3.686970 31.921760 1.040129 -3.663314 31.692382 0.000000 -0.000000 -0.000000 0.533914 -2.676648 22.557856 1.506954 -4.327447 38.384611 0.751606 -3.149361 26.839404 -0.000000 0.000000 -0.000000 0.307028 -2.047218 17.056680 1.638081 -4.487539 40.090813 0.926179 -3.472352 29.861433 -0.000000 0.000000 -0.000000 -1.697466 11.770141 4.599300 16.538857 -4.092775 0.909883 -12.310461 0.748711 -4.414978 -0.000014 0.000004 -0.000000 0.000000 -0.000001 -0.000000 4.435534 -4.589505 -5.833848 15.696816 -8.428059 4.296545 -15.126175 -20.188246 3.845589 -0.008599 0.000014 0.000002 -0.000000 -0.000002 -0.000000 
0.071537 94.605034 -1.354011 -2.690172 3.487906 0.878506 -0.563411 -0.735749 -4.025454 1.140142 -0.106574 1.510629 0.000000 0.000000 0.000000 1.143317 -0.100721 1.508753 8.412556 0.297272 0.355596 -3.006518 1.354628 1.523624 -0.000000 0.000000 -0.000000 6.872129 -26.731026 -3.767447 0.000000 0.000000 0.000000 5.921148 4.490969 -79.912783 -0.000001 -18.857092 0.000003 -18.728881 1.952515 7.499015 -1.708903 11.916058 7.382935 4.613904 16.205068 1.361380 0.155771 9.814995 3.327218 0.000001 -0.000001 0.000000 0.412753 2.352363 -19.901218 0.808883 3.243036 -28.003362 0.188814 1.604548 -13.421791 0.000000 0.000000 -0.000001 0.586204 2.784809 -23.770098 0.716674 3.063624 -26.327210 0.695573 3.020664 -25.929570 -0.000000 0.000000 0.000001 0.651602 2.928626 -25.082256 1.383758 4.145092 -36.907781 1.265822 3.983627 -35.243981 0.000000 -0.000001 0.000000 2.590591 6.755269 -26.660679 1.377530 0.051337 -37.025906 0.759110 3.147799 -27.110402 -0.000000 0.000000 0.000001 0.445813 -3.999974 8.740759 0.000000 0.000000 0.000000 8.930336 19.284662 69.787376 -0.000005 13.466604 -0.000009 -28.561266 -11.168565 5.813760 -2.036756 -12.208785 -7.947261 5.412885 -17.299512 -0.815999 -0.502648 -8.507751 -2.994147 -0.000000 -0.000003 -0.000000 0.404191 -2.340366 19.594587 0.986384 -3.574977 30.840982 0.485515 -2.557144 21.497788 0.000000 0.000000 0.000000 0.544393 -2.701699 22.778715 1.055263 -3.687659 31.928423 1.040358 -3.663680 31.695937 -0.000000 -0.000000 -0.000000 0.534507 -2.678071 22.570522 1.507456 -4.328079 38.391278 0.751837 -3.149815 26.843591 -0.000000 -0.000000 -0.000000 0.307574 -2.049007 17.072058 1.638685 -4.488252 40.098470 0.926437 -3.472804 29.865712 0.000001 0.000000 -0.000000 -1.695830 11.774368 4.610263 16.539124 -4.088735 0.909060 -12.324108 0.751725 -4.424063 -0.000062 0.000001 -0.000003 -0.000000 0.000001 0.000000 4.438080 -4.590405 -5.828325 15.692110 -8.427614 4.303369 -15.137924 -20.179835 3.838621 -0.011504 -0.000005 0.000001 0.000000 -0.000003 -0.000000 
